<svg width="20" height="20" viewBox="0 0 20 20" fill="none" xmlns="http://www.w3.org/2000/svg">
<path d="M10 20C11.9778 20 13.9112 19.4135 15.5557 18.3147C17.2002 17.2159 18.4819 15.6541 19.2388 13.8268C19.9957 11.9996 20.1937 9.98891 19.8078 8.0491C19.422 6.10929 18.4696 4.32746 17.0711 2.92894C15.6725 1.53041 13.8907 0.578004 11.9509 0.192152C10.0111 -0.1937 8.00043 0.00433281 6.17316 0.761209C4.3459 1.51809 2.78412 2.79981 1.6853 4.4443C0.58649 6.08879 0 8.02219 0 10C0 12.6522 1.05357 15.1957 2.92893 17.0711C4.8043 18.9464 7.34783 20 10 20ZM10 2.5C11.5156 2.50342 12.9945 2.9659 14.242 3.82652C15.4895 4.68715 16.447 5.90552 16.9884 7.32111C17.5297 8.7367 17.6295 10.2831 17.2745 11.7565C16.9196 13.2299 16.1266 14.5612 15 15.575V15.3125C14.9995 14.2914 14.6656 13.2984 14.0491 12.4845C13.4326 11.6706 12.5671 11.0802 11.5844 10.8031C12.1755 10.4555 12.6358 9.923 12.8943 9.28787C13.1529 8.65273 13.1954 7.95018 13.0152 7.28852C12.835 6.62685 12.4422 6.04283 11.8974 5.62647C11.3525 5.21011 10.6858 4.98455 10 4.98455C9.31425 4.98455 8.64753 5.21011 8.10264 5.62647C7.55776 6.04283 7.16495 6.62685 6.98478 7.28852C6.80461 7.95018 6.84709 8.65273 7.10566 9.28787C7.36423 9.923 7.82454 10.4555 8.41562 10.8031C7.43285 11.0802 6.56742 11.6706 5.9509 12.4845C5.33438 13.2984 5.00049 14.2914 5 15.3125V15.575C3.87343 14.5612 3.08042 13.2299 2.72548 11.7565C2.37053 10.2831 2.4703 8.7367 3.01163 7.32111C3.55296 5.90552 4.51046 4.68715 5.75797 3.82652C7.00547 2.9659 8.48444 2.50342 10 2.5Z" fill="#B0BAC5"/>
</svg>
