<svg width="18" height="21" viewBox="0 0 18 21" fill="none" xmlns="http://www.w3.org/2000/svg">
<path d="M9 0C9.65661 0 10.3068 0.129329 10.9134 0.380602C11.52 0.631876 12.0712 1.00017 12.5355 1.46447C12.9998 1.92876 13.3681 2.47995 13.6194 3.08658C13.8707 3.69321 14 4.34339 14 5V7H17C17.2652 7 17.5196 7.10536 17.7071 7.29289C17.8946 7.48043 18 7.73478 18 8V20C18 20.2652 17.8946 20.5196 17.7071 20.7071C17.5196 20.8946 17.2652 21 17 21H1C0.734784 21 0.48043 20.8946 0.292893 20.7071C0.105357 20.5196 0 20.2652 0 20V8C0 7.73478 0.105357 7.48043 0.292893 7.29289C0.48043 7.10536 0.734784 7 1 7H4V5C4 3.67392 4.52678 2.40215 5.46447 1.46447C6.40215 0.526784 7.67392 0 9 0ZM14 10H12V11C12.0003 11.2549 12.0979 11.5 12.2728 11.6854C12.4478 11.8707 12.687 11.9822 12.9414 11.9972C13.1958 12.0121 13.4464 11.9293 13.6418 11.7657C13.8373 11.6021 13.9629 11.3701 13.993 11.117L14 11V10ZM6 10H4V11C4.00028 11.2549 4.09788 11.5 4.27285 11.6854C4.44782 11.8707 4.68695 11.9822 4.94139 11.9972C5.19584 12.0121 5.44638 11.9293 5.64183 11.7657C5.83729 11.6021 5.9629 11.3701 5.993 11.117L6 11V10ZM9 2C8.23479 1.99996 7.49849 2.29233 6.94174 2.81728C6.38499 3.34224 6.04989 4.06011 6.005 4.824L6 5V7H12V5C12 4.23479 11.7077 3.49849 11.1827 2.94174C10.6578 2.38499 9.93989 2.04989 9.176 2.005L9 2Z" fill="#B0BAC5"/>
</svg>
