<svg width="44" height="42" viewBox="0 0 44 42" fill="none" xmlns="http://www.w3.org/2000/svg">
<path opacity="0.75" d="M36.6897 26.5165C37.8831 23.2407 38.3511 19.7074 37.8597 16.2443C37.0173 10.3009 33.8584 5.71465 27.915 2.48556C20.3571 -1.6795 10.1082 -0.205351 3.97762 5.90184C0.584731 9.29473 -1.4744 14.9105 1.26331 18.865C3.25224 21.7197 7.06631 22.7727 9.31264 25.4168C12.1205 28.7395 11.9099 33.8639 14.6945 37.1866C17.1748 40.1349 21.6206 40.9539 25.2709 39.7371C28.3362 38.7309 33.8584 34.2617 36.6897 26.5165Z" fill="#5493F7"/>
<path opacity="0.8" d="M25.2719 39.7601C28.3372 38.754 33.8594 34.2847 36.6907 26.5396C37.8841 23.2637 38.5393 20.1048 37.8607 16.2673C35.591 3.60836 20.0773 19.8942 17.3864 21.5556C12.0982 24.808 10.6474 31.9682 14.4147 36.9054C14.5083 37.0224 14.5785 37.1394 14.6721 37.233C17.1524 40.1579 21.6216 40.9535 25.2719 39.7601Z" fill="#2043B5"/>
<path opacity="0.7" d="M30.0917 4.44879C26.8159 3.25543 23.2826 2.78744 19.8195 3.27883C13.8761 4.1212 9.28984 7.28009 6.06075 13.2235C1.89569 20.7814 3.36984 31.0303 9.47704 37.1609C12.8699 40.5538 18.4857 42.6129 22.4402 39.8752C25.2949 37.8863 26.3479 34.0722 28.992 31.8259C32.3147 29.018 37.4391 29.2285 40.7618 26.444C43.7101 23.9637 44.5291 19.5179 43.3123 15.8676C42.3061 12.8023 37.8369 7.28009 30.0917 4.44879Z" fill="#3573EC"/>
<path d="M23.3069 29.4589L20.2884 23.3751L18.2761 25.2236L17.3635 29.4589H13.9238L17.2231 13.875H20.6862L19.3992 19.9354L26.0446 13.875H30.8415L23.0027 20.9416L27.4486 29.4589H23.3069Z" fill="white"/>
</svg>
